<svg width="30" height="30" viewBox="0 0 30 30" fill="none" xmlns="http://www.w3.org/2000/svg">
<path d="M11.3539 7.66976L11.2066 7.87173C10.9813 7.70734 10.6942 7.68738 10.455 7.78991C9.17931 8.33664 8.10848 9.71635 8.15989 11.1134C8.16106 11.1453 8.16262 11.1792 8.16464 11.2152L8.184 11.4632L8.21926 11.7554L8.27537 12.0939C8.52199 13.3973 9.26508 15.5096 11.4618 17.7063C13.6585 19.903 15.7708 20.6461 17.0742 20.8927L17.4152 20.9492C17.4657 20.9564 17.5145 20.9628 17.5616 20.9684L17.8337 20.9954L18.0572 21.0082C19.4517 21.0583 20.8294 19.9936 21.3751 18.7202C21.3751 18.7202 21.3751 18.7202 21.3751 18.7202L11.3539 7.66976ZM11.3539 7.66976L11.2066 7.87173C11.9088 8.38394 12.4739 9.07672 12.9705 9.77353M11.3539 7.66976L12.9705 9.77353M12.9705 9.77353L13.4448 10.4614L13.446 10.4632L13.4711 10.5004C13.5376 10.5987 13.6033 10.6957 13.6679 10.7902L13.6679 10.7903C13.8685 11.0836 13.8469 11.4724 13.6238 11.7396L13.5336 11.8303L12.202 12.8193L12.2019 12.8193C11.9741 12.9887 11.8905 13.3039 12.0341 13.5654L12.0341 13.5655C12.3458 14.1326 12.9018 14.9796 13.5451 15.6229C14.1888 16.2665 15.0741 16.8572 15.6766 17.2018M12.9705 9.77353L19.1879 16.0663L19.1891 16.0671L19.332 15.8621L19.1868 16.0655L18.3981 15.5157L18.5404 15.3102L18.3974 15.5153L18.3978 15.5155C18.0534 15.2774 17.581 15.3499 17.3255 15.6836M15.6766 17.2018C15.6766 17.2018 15.6766 17.2018 15.6766 17.2018L15.8008 16.9848L15.6766 17.2018ZM15.6766 17.2018C15.9043 17.332 16.1775 17.2885 16.3575 17.1242L16.3692 17.1136L16.3794 17.1016L16.4353 17.0359L16.4454 17.024L16.4539 17.011L17.3255 15.6836M17.3255 15.6836C17.324 15.6855 17.3225 15.6875 17.321 15.6895L17.1211 15.5393L17.3301 15.6765L17.3255 15.6836ZM7.17183 26.854L7.07885 26.8L6.9757 26.8303L2.55409 28.1309C1.67263 28.3902 0.848812 27.6248 1.00298 26.7521L1.03767 26.6062L2.33628 22.191L2.36736 22.0853L2.31037 21.9911C1.00255 19.8285 0.25 17.2921 0.25 14.5833C0.25 6.66725 6.66725 0.25 14.5833 0.25C22.4994 0.25 28.9167 6.66725 28.9167 14.5833C28.9167 22.4993 22.4993 28.9167 14.5833 28.9167C12.0559 28.9167 9.67856 28.2616 7.61501 27.1115L7.17183 26.854ZM4.51537 20.9616C4.77141 21.3649 4.88032 21.859 4.79573 22.3483L4.74325 22.5719L4.10114 24.7551L3.97181 25.1948L4.41151 25.0655L6.60135 24.4215C7.15945 24.2573 7.74206 24.3573 8.20499 24.6513C10.0485 25.8219 12.2348 26.5 14.5833 26.5C21.1648 26.5 26.5 21.1648 26.5 14.5833C26.5 8.00194 21.1648 2.66667 14.5833 2.66667C8.00194 2.66667 2.66667 8.00194 2.66667 14.5833C2.66667 16.9318 3.34476 19.1182 4.51537 20.9616Z" fill="#333333" stroke="#F7F7F7" stroke-width="0.5"/>
</svg>
